<svg width="236" height="345" viewBox="0 0 236 345" fill="none" xmlns="http://www.w3.org/2000/svg">
<g clip-path="url(#clip0_4_18)">
<path d="M1.1267 301.073C4.69089 318.194 60.2922 308.92 60.2922 308.92L84.5287 306.066C84.5287 306.066 73.1233 312.487 83.1031 320.334C93.0828 328.181 126.586 311.773 126.586 311.773C137.828 315.524 151.601 315.509 163.53 314.308C180.724 312.577 194.505 299.296 196.868 282.165C210.193 185.546 136.922 138.065 136.922 138.065L115.537 80.2805C115.537 80.2805 122.309 63.516 124.448 48.5349C126.586 33.5539 110.904 19.2862 91.6571 5.01854C72.4105 -9.24912 46.7483 11.439 46.7483 11.439C46.7483 11.439 31.408 -1.50893 16.8519 0.90945C13.6513 1.43735 10.4934 2.70719 7.54224 5.01854C4.49128 7.40836 3.14405 11.3962 3.10128 16.3542C2.87316 38.0125 27.516 77.9976 43.1841 82.0639C62.4308 87.0576 48.174 154.116 48.174 154.116C16.8091 198.345 38.9071 247.569 38.9071 247.569L33.2044 287.518C33.2044 287.518 -2.43749 283.951 1.1267 301.073V301.073Z" fill="#9D5C2C"/>
<path d="M141.199 220.817L133.358 318.55C133.358 318.55 144.051 345.659 107.696 344.232C71.3412 342.806 92.7263 287.162 92.7263 287.162L104.132 214.397" fill="#9D5C2C"/>
<path d="M110.401 345C109.512 345 108.602 344.982 107.668 344.945C99.6201 344.629 93.694 341.663 90.0532 336.129C79.644 320.305 91.2213 289.112 92.0337 286.977L103.427 214.286C103.489 213.896 103.851 213.634 104.242 213.691C104.631 213.753 104.897 214.118 104.836 214.507L93.4308 287.272C93.4225 287.322 93.41 287.371 93.3919 287.418C93.2672 287.741 81.094 319.917 91.245 335.346C94.6184 340.472 100.162 343.223 107.724 343.52C119.594 343.983 127.578 341.448 131.46 335.98C136.538 328.826 132.734 318.911 132.695 318.812C132.655 318.711 132.639 318.601 132.647 318.493L140.489 220.76C140.52 220.368 140.857 220.081 141.256 220.106C141.649 220.138 141.941 220.481 141.91 220.874L134.081 318.447C134.599 319.846 137.847 329.437 132.628 336.798C128.766 342.245 121.295 345 110.401 345V345Z" fill="#9D5C2C"/>
<path d="M76.3311 240.792C76.3311 240.792 78.4696 331.391 33.5608 329.251C-11.348 327.111 29.2838 298.576 29.2838 298.576L33.2044 287.518" fill="#9D5C2C"/>
<path d="M35.102 330.002C34.5806 330.002 34.0564 329.989 33.5267 329.964C20.704 329.353 13.459 326.478 11.9933 321.419C9.35285 312.302 26.5633 299.645 28.6872 298.124L32.5326 287.28C32.6642 286.908 33.0714 286.714 33.4425 286.846C33.8135 286.978 34.0077 287.385 33.8761 287.757L29.9555 298.814C29.9061 298.954 29.8142 299.075 29.6931 299.16C29.5051 299.292 10.8903 312.489 13.3629 321.022C14.6407 325.431 21.4474 327.96 33.5949 328.539C41.6846 328.928 48.7761 326.205 54.6598 320.457C76.7237 298.901 75.6322 241.387 75.6182 240.808C75.6092 240.415 75.9204 240.088 76.3144 240.078C76.6868 240.079 77.0342 240.381 77.0439 240.775C77.1003 243.162 78.1647 299.485 55.6567 321.476C49.8628 327.138 42.9537 330.002 35.102 330.002V330.002Z" fill="#9D5C2C"/>
<path d="M3.10126 16.3542C8.21943 16.9677 16.2317 16.9392 22.8682 12.5091C29.9752 7.76506 22.5974 3.34207 16.8519 0.909458C13.6512 1.43735 10.4934 2.7072 7.54222 5.01855C4.49126 7.40837 3.14403 11.3962 3.10126 16.3542Z" fill="black"/>
<path d="M94.5084 47.1082C94.5084 47.1082 92.3699 12.8658 109.478 17.8594C126.586 22.8531 131.576 53.5286 131.576 53.5286C131.576 53.5286 149.397 144.842 92.3699 122.013C35.3429 99.1851 73.1233 77.0703 73.1233 77.0703C73.1233 77.0703 91.6571 64.9427 94.5084 47.1082V47.1082Z" fill="black"/>
<path d="M156.909 275.973C164.799 279.485 173.042 283.07 181.67 282.727C190.299 282.384 199.378 276.823 200.723 268.287C201.417 263.88 200.04 259.153 201.726 255.023C203.994 249.467 211.311 247.324 216.999 249.228C222.687 251.132 226.865 256.042 229.861 261.242C235.467 270.97 237.713 283.738 231.703 293.221C226.493 301.442 216.611 305.157 207.42 308.343C195.177 312.587 181.507 316.8 169.644 311.586C157.712 306.343 151.213 291.195 155.631 278.926" fill="#9D5C2C"/>
<path d="M130.588 121.933C130.588 121.933 146.271 129.78 138.429 138.34C130.588 146.901 82.1152 171.156 64.2942 167.589C46.4733 164.022 42.1962 153.321 42.1962 150.468C42.1962 147.614 38.6321 137.627 44.3348 139.054C50.0375 140.48 90.6692 148.328 130.588 121.933Z" fill="#6BB7E9"/>
</g>
<defs>
<clipPath id="clip0_4_18">
<rect width="236" height="345" fill="white"/>
</clipPath>
</defs>
</svg>
